HIERARCHY
ROOT Hips
{
	OFFSET 0.000000 0.000000 0.000000 
	CHANNELS 6 Xposition Yposition Zposition Zrotation Yrotation Xrotation
	JOINT LeftUpLeg
	{
		OFFSET 1.363060 -1.794630 0.839290 
		CHANNELS 3 Zrotation Yrotation Xrotation
		JOINT LeftLeg
		{
			OFFSET 2.448110 -6.726130 0.000000 
			CHANNELS 3 Zrotation Yrotation Xrotation
			JOINT LeftFoot
			{
				OFFSET 2.562200 -7.039590 0.000000 
				CHANNELS 3 Zrotation Yrotation Xrotation
				JOINT LeftToeBase
				{
					OFFSET 0.157640 -0.433110 2.322550 
					CHANNELS 3 Zrotation Yrotation Xrotation
					End Site
					{
						OFFSET 0.000000 0.000000 0.000000 
					}
				}
			}
		}
	}
	JOINT RightUpLeg
	{
		OFFSET -1.305520 -1.794630 0.839290 
		CHANNELS 3 Zrotation Yrotation Xrotation
		JOINT RightLeg
		{
			OFFSET -2.542530 -6.985550 0.000000 
			CHANNELS 3 Zrotation Yrotation Xrotation
			JOINT RightFoot
			{
				OFFSET -2.568260 -7.056230 0.000000 
				CHANNELS 3 Zrotation Yrotation Xrotation
				JOINT RightToeBase
				{
					OFFSET -0.164730 -0.452590 2.363150 
					CHANNELS 3 Zrotation Yrotation Xrotation
					End Site
					{
						OFFSET 0.000000 0.000000 0.000000 
					}
				}
			}
		}
	}
	JOINT Spine
	{
		OFFSET 0.028270 2.035590 -0.193380 
		CHANNELS 3 Zrotation Yrotation Xrotation
		JOINT Spine1
		{
			OFFSET 0.056720 2.048850 -0.042750 
			CHANNELS 3 Zrotation Yrotation Xrotation
			JOINT Neck1
			{
				OFFSET -0.054170 1.746240 0.172020 
				CHANNELS 3 Zrotation Yrotation Xrotation
				JOINT Head
				{
					OFFSET 0.104070 1.761360 -0.123970 
					CHANNELS 3 Zrotation Yrotation Xrotation
					End Site
					{
						OFFSET 0.000000 0.000000 0.000000 
					}
				}
			}
			JOINT LeftArm
			{
				OFFSET 3.362410 1.200890 -0.311210 
				CHANNELS 3 Zrotation Yrotation Xrotation
				JOINT LeftForeArm
				{
					OFFSET 4.983000 -0.000000 -0.000000 
					CHANNELS 3 Zrotation Yrotation Xrotation
					JOINT LeftHand
					{
						OFFSET 3.483560 -0.000000 -0.000000 
						CHANNELS 3 Zrotation Yrotation Xrotation
						JOINT LeftHandIndex1
						{
							OFFSET 0.715260 -0.000000 -0.000000 
							CHANNELS 3 Zrotation Yrotation Xrotation
							End Site
							{
								OFFSET 0.000000 0.000000 0.000000 
							}
						}
					}
				}
			}
			JOINT RightArm
			{
				OFFSET -3.136600 1.374050 -0.404650 
				CHANNELS 3 Zrotation Yrotation Xrotation
				JOINT RightForeArm
				{
					OFFSET -5.241900 -0.000000 -0.000000 
					CHANNELS 3 Zrotation Yrotation Xrotation
					JOINT RightHand
					{
						OFFSET -3.444170 -0.000000 -0.000000 
						CHANNELS 3 Zrotation Yrotation Xrotation
						JOINT RightHandIndex1
						{
							OFFSET -0.622530 -0.000000 -0.000000 
							CHANNELS 3 Zrotation Yrotation Xrotation
							End Site
							{
								OFFSET 0.000000 0.000000 0.000000 
							}
						}
					}
				}
			}
		}
	}
}
MOTION
Frames: 9
Frame Time: 0.041667
0.401443 17.852664 -30.620411 -2.547635 1.492677 3.441312 -9.585628 -2.583443 -8.866635 0.322322 8.571700 22.167160 -3.124320 13.730039 -1.582671 0.248300 -3.206700 -8.854600 14.749175 0.655123 -9.673489 -1.352064 -9.528873 25.069388 4.700889 -20.237623 -7.699928 -0.025100 1.023600 -2.813900 2.025517 -0.232522 -2.058061 1.199122 -0.138725 -2.326850 0.663457 -4.290626 14.901243 -3.916400 -1.468100 10.167800 -91.364940 1.484116 30.873386 13.503010 -21.723191 -2.356476 0.322828 0.386239 -4.988952 -7.125000 0.000000 0.000000 91.050655 0.081670 13.266673 -11.856500 20.407426 -2.124884 -0.049993 -0.544456 0.011807 7.125000 0.000000 0.000000 
0.404124 17.846905 -30.623985 -2.545816 1.525316 3.039638 -9.656183 -2.729015 -8.421651 0.322269 8.583430 22.173189 -3.170353 13.904677 -1.679444 0.247000 -3.198100 -8.830700 14.755695 0.537697 -9.256465 -1.346379 -9.525845 25.036271 4.699342 -20.250007 -7.724752 -0.025100 1.022600 -2.811000 2.018337 -0.244512 -1.972565 1.183246 -0.144034 -2.490104 0.702058 -4.195444 14.732284 -3.884400 -1.433500 10.086200 -91.372721 1.548593 30.841206 13.545683 -21.784089 -2.371206 0.323598 0.389732 -4.970275 -7.125000 0.000000 0.000000 91.040562 0.048794 13.327498 -11.872354 20.427980 -2.129164 -0.049465 -0.544918 -0.039171 7.125000 0.000000 0.000000 
0.406706 17.839259 -30.628056 -2.533015 1.571620 2.640051 -9.741530 -2.783727 -7.976247 0.320911 8.592163 22.175160 -3.183027 13.964521 -1.784105 0.243900 -3.177800 -8.774100 14.753955 0.416132 -8.863990 -1.349100 -9.539198 25.056868 4.696146 -20.256806 -7.802517 -0.025000 1.021700 -2.808400 1.999640 -0.260158 -1.883666 1.152732 -0.152503 -2.635399 0.701106 -4.142637 14.687128 -3.884500 -1.409000 10.061900 -91.340131 1.539149 30.929783 13.511864 -21.733697 -2.359864 0.325347 0.387256 -5.065237 -7.125000 0.000000 0.000000 91.056854 0.038252 13.342138 -11.887598 20.449511 -2.134583 -0.047488 -0.547733 -0.095188 7.125000 0.000000 0.000000 
0.409784 17.847203 -30.617531 -2.509412 1.359699 3.141884 -9.725315 -2.658930 -8.472547 0.318252 8.574868 22.147444 -3.194061 13.983595 -1.747050 0.241800 -3.164300 -8.736400 14.672853 0.585495 -9.353991 -1.346673 -9.525762 25.042532 4.670502 -20.139229 -7.653352 -0.026300 1.046200 -2.875800 1.989475 -0.178751 -2.007024 1.144380 -0.111782 -2.414097 0.706856 -4.148894 14.778665 -3.884400 -1.404700 10.104400 -91.347903 1.571818 30.910125 13.505757 -21.724818 -2.357398 0.323883 0.386916 -5.021073 -7.125000 0.000000 0.000000 91.056616 0.003270 13.289802 -11.851656 20.399569 -2.123191 -0.052597 -0.543015 0.073803 7.125000 0.000000 0.000000 
0.413855 17.848493 -30.611772 -2.499381 1.229471 3.267020 -9.751117 -2.635802 -8.565166 0.317065 8.570571 22.136572 -3.221197 14.072292 -1.787782 0.238800 -3.144800 -8.682000 14.625788 0.639893 -9.480942 -1.348409 -9.528102 25.057602 4.647199 -20.048463 -7.594392 -0.026800 1.057300 -2.906300 1.977863 -0.127496 -2.032472 1.117845 -0.086960 -2.326665 0.703631 -4.141860 14.805180 -3.885800 -1.399600 10.116500 -91.350422 1.587205 30.906620 13.499153 -21.715381 -2.355254 0.323828 0.386890 -5.007228 -7.125000 0.000000 0.000000 91.054530 -0.014646 13.272682 -11.828111 20.366507 -2.115987 -0.056206 -0.540109 0.189708 7.125000 0.000000 0.000000 
0.418621 17.850281 -30.604424 -2.497157 1.068917 3.440714 -9.769523 -2.610399 -8.700217 0.316231 8.565832 22.126014 -3.254602 14.179352 -1.837321 0.235500 -3.123600 -8.622900 14.577712 0.708043 -9.653378 -1.348445 -9.526690 25.063599 4.618051 -19.934826 -7.513683 -0.027300 1.066600 -2.932000 1.966218 -0.064222 -2.063889 1.081537 -0.056485 -2.205387 0.697163 -4.152519 14.852203 -3.889800 -1.402000 10.137600 -91.355279 1.598758 30.894010 13.491789 -21.705037 -2.352802 0.323763 0.386879 -4.981577 -7.125000 0.000000 0.000000 91.052051 -0.030727 13.252783 -11.800273 20.327693 -2.107377 -0.060368 -0.536580 0.331518 7.125000 0.000000 0.000000 
0.423784 17.852068 -30.596580 -2.500510 0.897876 3.614725 -9.786221 -2.598075 -8.832327 0.316267 8.563114 22.121086 -3.294087 14.306536 -1.900054 0.232300 -3.102000 -8.562800 14.531568 0.774688 -9.826611 -1.348301 -9.524868 25.068492 4.586044 -19.811266 -7.423772 -0.027800 1.076900 -2.960500 1.956119 0.004560 -2.094429 1.041691 -0.023318 -2.079949 0.692562 -4.166250 14.881116 -3.891500 -1.407600 10.148900 -91.365721 1.613397 30.866993 13.486315 -21.697768 -2.350979 0.323778 0.386917 -4.935754 -7.125000 0.000000 0.000000 91.046238 -0.052537 13.238077 -11.775791 20.293468 -2.099764 -0.064276 -0.533161 0.466731 7.125000 0.000000 0.000000 
0.429345 17.853557 -30.588736 -2.507854 0.723893 3.762541 -9.804505 -2.598452 -8.934176 0.316576 8.561691 22.118482 -3.338150 14.449416 -1.976643 0.229400 -3.083100 -8.510200 14.488921 0.835083 -9.973481 -1.347806 -9.523170 25.072522 4.552550 -19.683415 -7.334950 -0.028300 1.086200 -2.985900 1.945470 0.076340 -2.118009 0.996563 0.011694 -1.959905 0.689659 -4.169406 14.876110 -3.891100 -1.410300 10.143100 -91.376381 1.629625 30.834665 13.481206 -21.691135 -2.349462 0.323958 0.386680 -4.884237 -7.125000 0.000000 0.000000 91.040527 -0.081721 13.235318 -11.761646 20.273538 -2.095396 -0.067058 -0.530772 0.564799 7.125000 0.000000 0.000000 
0.434607 17.854352 -30.581984 -2.515635 0.570686 3.860967 -9.827266 -2.617848 -8.984445 0.317151 8.562197 22.119100 -3.382819 14.596340 -2.061352 0.227400 -3.069600 -8.472600 14.451649 0.880388 -10.070885 -1.347310 -9.522419 25.075996 4.522330 -19.569975 -7.258111 -0.028800 1.095500 -3.011700 1.935091 0.141155 -2.137119 0.952825 0.043451 -1.866307 0.693369 -4.168562 14.850267 -3.886200 -1.411800 10.121400 -91.386004 1.661688 30.803510 13.476846 -21.685020 -2.348049 0.324476 0.385755 -4.838125 -7.125000 0.000000 0.000000 91.037114 -0.130049 13.235534 -11.756759 20.266175 -2.093640 -0.068667 -0.529277 0.627656 7.125000 0.000000 0.000000 
